PathFileType	4	(X/Y/Z)	Apose_0-50.trc
DataRate	CameraRate	NumFrames	NumMarkers	Units	OrigDataRate	OrigDataStartFrame	OrigNumFrames
30	30	6	22	m	30	40	50
Frame#	Time	Hip			RHip			RKnee			RAnkle			RBigToe			RSmallToe			RHeel			LHip			LKnee			LAnkle			LBigToe			LSmallToe			LHeel			Neck			Head			Nose			RShoulder			RElbow			RWrist			LShoulder			LElbow			LWrist		
		X1	Y1	Z1	X2	Y2	Z2	X3	Y3	Z3	X4	Y4	Z4	X5	Y5	Z5	X6	Y6	Z6	X7	Y7	Z7	X8	Y8	Z8	X9	Y9	Z9	X10	Y10	Z10	X11	Y11	Z11	X12	Y12	Z12	X13	Y13	Z13	X14	Y14	Z14	X15	Y15	Z15	X16	Y16	Z16	X17	Y17	Z17	X18	Y18	Z18	X19	Y19	Z19	X20	Y20	Z20	X21	Y21	Z21	X22	Y22	Z22
41	1.3666666666666667	0.040358438501976075	0.9245735608560387	0.3550517487904617	0.03203308461497873	0.8842562561409839	0.4625387246418733	0.007278085735089948	0.5101615305667364	0.4959955420745018	-0.003896704823763562	0.11030206613732914	0.5133272414304482	0.1907779974200339	0.033782119108609704	0.5587293209042231	0.14908230118108307	0.03425861953998593	0.6263845874499916	-0.03871755359698572	0.03709285108832742	0.4975707905115273	0.03281385886298391	0.8829884824751085	0.2432782265119663	0.014089964064072187	0.5106323108333714	0.22266429904107188	0.00669479963454715	0.11498017897852139	0.20810115876780413	0.2212876415207528	0.049347102704542865	0.18750111571175734	0.16744400674426924	0.03662412257517446	0.125110823333274	-0.054684241998333764	0.03985883981839826	0.20942511694529203	0.05604507433775685	1.5809955101957152	0.3429241221195904	0.19255628875750838	1.8135676410439165	0.33653046096347394	0.29706788125792033	1.6583732976605579	0.327705118990637	0.02454856081759224	1.497025692984767	0.5290348224867601	0.08320181526674353	1.2380246553151009	0.713780687909199	0.13018861457893727	1.0465494032484859	0.8873863669627726	0.018156384305059652	1.4855605496612523	0.14636563991926238	0.029556155694680824	1.2289365133534145	0.0003512096008042719	0.08180614552283799	1.022018190577345	-0.14568466189576007
42	1.4	0.04110788905926716	0.9259765227485126	0.3549015556854107	0.03367963084267207	0.885525327277713	0.46187486482643664	0.00634799677392423	0.5087769319886805	0.4944489291605288	-0.002463397073215833	0.1099529279034739	0.5128521094554812	0.2038101925977161	0.04163494656846836	0.566366305265148	0.14987350541340486	0.03244179122213325	0.6268076294412992	-0.035628827867244035	0.03425212477538805	0.49756914735090835	0.03565883350371458	0.8860310191230084	0.2422874418135688	0.01466983556099246	0.5103138960048809	0.22174540632314252	0.0062463273080507085	0.11780842559125419	0.21022431929958132	0.2198854896794267	0.049866414114081166	0.1873706683248992	0.1664863352902513	0.03570565623001323	0.12531727358455427	-0.05305736871615795	0.041357284398582876	0.2104017603652798	0.05779933504353881	1.5812413672755858	0.34377922035759617	0.24883843112737286	1.8111057169098956	0.28544095602470854	0.29375265961853875	1.6641588420938358	0.32594479875465865	0.02375556075034381	1.4976073459496015	0.5268876535550385	0.08272247872176419	1.2372251227576199	0.7135930058160086	0.13090194900283444	1.0467368539089972	0.8873380849240011	0.016802547765485218	1.4849697922901082	0.14694819831923706	0.029059968312789248	1.2271451457958578	0.0005371354241037546	0.07536991950954598	1.0169346641593071	-0.15202253275537997
43	1.4333333333333333	0.041573676577900356	0.9254617356398909	0.3557941644002346	0.032258166113747065	0.8850539696876183	0.462412237701454	0.005830756928468805	0.5104913825520958	0.49584634919319365	-0.0037490400133996576	0.10886788673007437	0.5141990652026894	0.2053630927497976	0.03906359989992821	0.5651617049721972	0.1502054087985995	0.03104151497994334	0.6263378888059873	-0.03512519295672204	0.03506280704215597	0.496219868284883	0.03438322176720439	0.8846954805911383	0.24334074069990608	0.015391945771659801	0.5102739189818305	0.22080851004708482	0.005837918374469703	0.11732074488481875	0.20939000110575132	0.2191429850483365	0.047360387891678506	0.18477652790748939	0.16676051691988306	0.035577963697734465	0.12536135195441017	-0.05376982083119479	0.04021595362327237	0.20962061975151483	0.05677834347033051	1.5813907040878983	0.34334821369362006	0.18543407924357594	1.817721681517311	0.33757888672220804	0.29363214666616827	1.666452716156828	0.329439802203026	0.022155004231242535	1.4960243901249333	0.5271532366121842	0.08446847615986133	1.2377010698467912	0.7123309481574494	0.1339006023296428	1.0455673994149546	0.885741977649636	0.015394353730476866	1.4857699625514809	0.14785779287896408	0.02812651899817753	1.2278438752364316	0.0014727199942390582	0.0777365765815547	1.016467547695263	-0.15380185997483056
44	1.4666666666666666	0.04332196202342508	0.9254524027723302	0.35610930514099765	0.031934579591774814	0.8863397015225551	0.46169618630434966	0.007968749045592256	0.5099869619801553	0.4974778101282857	-0.0026320343008302315	0.10779457166805058	0.5156389769977321	0.1971118142503419	0.03432240894263222	0.5607061692317782	0.14810738429980808	0.03222140115509147	0.6280992692237748	-0.03569138294558066	0.03379189141883122	0.49766075526705794	0.03628946689942672	0.8852783421991508	0.24229553805540188	0.016308010940684722	0.5126735125094595	0.22372452243285057	0.002744837665492865	0.12539222029748012	0.20590749797016888	0.21959597816502419	0.048567690332258835	0.187602767785019	0.16651830496823214	0.037110716395702195	0.1255188833969751	-0.04404538280034248	0.06078905936667315	0.1993638124874376	0.056034642579014075	1.5808645501682261	0.34282129041464665	0.24236588097527892	1.816066416269056	0.2823112964952095	0.28291916811550316	1.6679788041918993	0.3289297915639593	0.022165458736572753	1.4973800316855557	0.5264610042785048	0.08439833363445991	1.2377751208525314	0.7122686633177377	0.13727436435451545	1.0438272459874987	0.8844585801881761	0.01829707743492314	1.48507988244655	0.14631214614521346	0.029612668497812616	1.2266734895693088	-0.0010197969708593407	0.07462152191596212	1.0155198746301601	-0.1533419120410868
45	1.5	0.04283127124666693	0.924299446506525	0.3568729845408254	0.033115481234302836	0.8837770525914045	0.464947819587501	0.01005387119460014	0.5088895618339028	0.4974513285439813	-0.009494264382854565	0.11803207315654857	0.516866374176846	0.2024558469290064	0.0382422969934736	0.5647529692786283	0.1475810748483958	0.03288412806976217	0.6251540848517705	-0.034724971197991075	0.03453516231580718	0.498350133563456	0.03681819024242717	0.882816154130724	0.24504416960557465	0.01872081563513047	0.511005748602819	0.22387910616300108	0.0059173661164685955	0.11716386310361508	0.20925129498015257	0.21914422242896453	0.04839069052973084	0.1867099291775428	0.16507081468518162	0.03689559171147662	0.12546225218668905	-0.046281563394039875	0.05863584405509972	0.20063782470403763	0.05397430338415374	1.581550811517588	0.3444478357721534	0.24012925161896614	1.817735379061953	0.2819388950331331	0.28244905178056495	1.6708565741359482	0.3322716126625132	0.02486128126485282	1.4954626814381855	0.5296846832274531	0.08638708849213554	1.2384030573425377	0.7124305386259682	0.13871460892747137	1.0460046361797508	0.8826856341688009	0.015469181843717653	1.4843245601992447	0.14764429570953888	0.03244525794726885	1.2269671161457412	0.00019974870781548065	0.07713938051466836	1.0161722161195696	-0.1536020828419916
46	1.5333333333333334	0.04298567478915212	0.9234577101548759	0.35684848718401985	0.03201518117900149	0.8850372278146569	0.46522689820047886	0.01171664588139132	0.5099225383706875	0.4958682045197575	-0.002691938554769755	0.10822288730204217	0.5151483841998596	0.20049126035774312	0.04091701643369728	0.5669498630819153	0.146413565829423	0.034224123962867024	0.6260403177069391	-0.035059980901887854	0.037409636878995296	0.4981858674898876	0.03601702740272987	0.8815396561718026	0.24581343814747136	0.018213906654414688	0.5127890516662736	0.22531095493342343	0.00408806924006688	0.12330351699825175	0.2063391453026069	0.21903957020461612	0.04966640394185016	0.18732368708528171	0.16486363075834448	0.037952353374572055	0.12621852047794593	-0.04794584300544033	0.059617821770703884	0.2014334919454436	0.056045940917796216	1.5826718948743153	0.3460631545541933	0.23088208123871462	1.8210254902669962	0.29135278078849836	0.23014500044017708	1.6503680530030573	0.32304617949818787	0.02440707786703606	1.494845586347274	0.5294349225290081	0.08678866246375756	1.2382081842861832	0.7123317530009685	0.1403116671979156	1.0453786210587008	0.8835695068592874	0.013773296827677752	1.4858325187479209	0.14745884310995203	0.028972242549887308	1.2271548827334644	-0.0009262055187326256	0.0859263736819887	1.019548448224938	-0.14705586108954266
